<svg width="24" height="20" viewBox="0 0 24 20" fill="none" xmlns="http://www.w3.org/2000/svg">
<path d="M24 3.45709V17.3661C24 18.2701 23.268 19.0021 22.364 19.0021H18.545V9.73009L12 14.6401L5.455 9.73009V19.0031H1.636C1.42107 19.0031 1.20825 18.9607 1.0097 18.8785C0.811145 18.7962 0.63075 18.6756 0.47882 18.5236C0.32689 18.3715 0.206404 18.1911 0.124246 17.9925C0.0420884 17.7939 -0.000131068 17.581 3.05652e-07 17.3661V3.45709C3.05652e-07 1.43409 2.309 0.27909 3.927 1.49309L5.455 2.64009L12 7.54809L18.545 2.63809L20.073 1.49309C21.69 0.280089 24 1.43409 24 3.45709Z" fill="black"/>
</svg>
