<svg width="24" height="24" viewBox="0 0 24 24" fill="none" xmlns="http://www.w3.org/2000/svg">
    <g clip-path="url(#clip0_19_75)">
        <path id="svg-left-path-1" fill-rule="evenodd" clip-rule="evenodd" d="M7.94002 13.06C7.65912 12.7788 7.50134 12.3975 7.50134 12C7.50134 11.6025 7.65912 11.2213 7.94002 10.94L13.596 5.28202C13.8774 5.00076 14.259 4.8428 14.6569 4.8429C14.8539 4.84294 15.0489 4.88179 15.2309 4.95722C15.4129 5.03265 15.5783 5.14319 15.7175 5.28252C15.8568 5.42185 15.9672 5.58725 16.0426 5.76928C16.1179 5.9513 16.1567 6.14638 16.1567 6.34338C16.1566 6.54038 16.1178 6.73544 16.0423 6.91742C15.9669 7.09941 15.8564 7.26476 15.717 7.40402L11.121 12L15.717 16.596C15.8604 16.7343 15.9747 16.8998 16.0534 17.0828C16.1321 17.2657 16.1736 17.4625 16.1754 17.6617C16.1772 17.8609 16.1394 18.0584 16.064 18.2428C15.9887 18.4272 15.8774 18.5947 15.7366 18.7356C15.5958 18.8765 15.4284 18.988 15.2441 19.0635C15.0598 19.139 14.8623 19.177 14.6631 19.1754C14.464 19.1738 14.2671 19.1325 14.0841 19.0539C13.901 18.9754 13.7355 18.8612 13.597 18.718L7.93802 13.06H7.94002Z" fill="black"/>
        <path id="svg-left-path-2" fill-rule="evenodd" clip-rule="evenodd" d="M7.94002 13.06C7.65912 12.7788 7.50134 12.3975 7.50134 12C7.50134 11.6025 7.65912 11.2213 7.94002 10.94L13.596 5.28202C13.8774 5.00076 14.259 4.8428 14.6569 4.8429C14.8539 4.84294 15.0489 4.88179 15.2309 4.95722C15.4129 5.03265 15.5783 5.14319 15.7175 5.28252C15.8568 5.42185 15.9672 5.58725 16.0426 5.76928C16.1179 5.9513 16.1567 6.14638 16.1567 6.34338C16.1566 6.54038 16.1178 6.73544 16.0423 6.91742C15.9669 7.09941 15.8564 7.26476 15.717 7.40402L11.121 12L15.717 16.596C15.8604 16.7343 15.9747 16.8998 16.0534 17.0828C16.1321 17.2657 16.1736 17.4625 16.1754 17.6617C16.1772 17.8609 16.1394 18.0584 16.064 18.2428C15.9887 18.4272 15.8774 18.5947 15.7366 18.7356C15.5958 18.8765 15.4284 18.988 15.2441 19.0635C15.0598 19.139 14.8623 19.177 14.6631 19.1754C14.464 19.1738 14.2671 19.1325 14.0841 19.0539C13.901 18.9754 13.7355 18.8612 13.597 18.718L7.93802 13.06H7.94002Z" fill="black"/>
        <path id="svg-left-path-3" fill-rule="evenodd" clip-rule="evenodd" d="M7.94002 13.06C7.65912 12.7788 7.50134 12.3975 7.50134 12C7.50134 11.6025 7.65912 11.2213 7.94002 10.94L13.596 5.28202C13.8774 5.00076 14.259 4.8428 14.6569 4.8429C14.8539 4.84294 15.0489 4.88179 15.2309 4.95722C15.4129 5.03265 15.5783 5.14319 15.7175 5.28252C15.8568 5.42185 15.9672 5.58725 16.0426 5.76928C16.1179 5.9513 16.1567 6.14638 16.1567 6.34338C16.1566 6.54038 16.1178 6.73544 16.0423 6.91742C15.9669 7.09941 15.8564 7.26476 15.717 7.40402L11.121 12L15.717 16.596C15.8604 16.7343 15.9747 16.8998 16.0534 17.0828C16.1321 17.2657 16.1736 17.4625 16.1754 17.6617C16.1772 17.8609 16.1394 18.0584 16.064 18.2428C15.9887 18.4272 15.8774 18.5947 15.7366 18.7356C15.5958 18.8765 15.4284 18.988 15.2441 19.0635C15.0598 19.139 14.8623 19.177 14.6631 19.1754C14.464 19.1738 14.2671 19.1325 14.0841 19.0539C13.901 18.9754 13.7355 18.8612 13.597 18.718L7.93802 13.06H7.94002Z" fill="black"/>
    </g>
    <!-- <defs>
        <clipPath id="clip0_19_75">
            <rect width="24" height="24" fill="white"/>
        </clipPath>
    </defs> -->
</svg>
