<svg xmlns="http://www.w3.org/2000/svg" fill="none" viewBox="0 0 497 188">
  <defs>
    <clipPath id="404-01">
    <path d="M124.07,146.97h-16.8v30.8h-32v-30.8H12.67v-25.8L73.07,19.58h34.2V121.17h16.8v25.8Zm-48.8-25.8v-56.2l-33.2,56.2h33.2Z"/>
    </clipPath>
    <clipPath id="404-02">
    <path d="M290.87,165.57c-8.6,10-21.4,15-38,15s-29.4-5-38-15c-11.4-13-16.6-32.8-16.6-67s5.2-53.8,16.6-66.8c8.6-10,21.4-15,38-15s29.4,5,38,15c11.2,13,16.6,32.8,16.6,66.8s-5.4,54-16.6,67Zm-53.8-18.8c3.8,5.4,8.8,7.8,15.8,7.8s11.8-2.4,15.8-7.8c5.2-7.6,6.8-21.4,6.8-48.2s-1.6-40.4-6.8-48c-4-5.4-9-7.8-15.8-7.8s-12,2.4-15.8,7.8c-5.2,7.6-6.8,21.4-6.8,48s1.6,40.6,6.8,48.2Z"/>
    </clipPath>
    <clipPath id="404-03">
    <path d="M492.86,146.97h-16.8v30.8h-32v-30.8h-62.6v-25.8l60.4-101.6h34.2V121.17h16.8v25.8Zm-48.8-25.8v-56.2l-33.2,56.2h33.2Z"/>
    </clipPath>
  </defs>
  <g class="svg-main">
    <path clip-path="url(#404-01)" d="M99.99,11.39c-8.23,10.99-36.64,51.4-55.83,76.6-19.22,25.23-28.19,36.74-24.26,43.53,3.79,6.54,16.49,4.72,44.68,3.28,26.95-1.38,48.75-1.44,62.72-1.28"/>
    <path clip-path="url(#404-01)" d="M89.99,7.48c.09,57.99,.17,115.97,.26,173.96"/>
    <path clip-path="url(#404-02)" d="M248.42,28.76s-8.79,.08-16.21,3.83c-22.44,11.34-21.63,56.83-21.4,69.79,.36,20.42,.86,48.55,19.23,60.94,10.45,7.05,21.96,6.38,21.96,6.38,11.54-.66,19.27-7.31,21.38-9.13,14.1-12.12,14.61-32.17,14.87-56.74,.29-27.08,.61-55.82-17.11-67.91-10.63-7.26-22.72-7.15-22.72-7.15Z"/>
    <path clip-path="url(#404-03)" d="M468.51,10.12c-19.51,31.76-37.21,56.22-49.94,72.89-19.29,25.24-32.73,39.86-27.93,48.39,3.59,6.37,15.01,5.19,45.7,4.43,25.72-.64,46.79-.54,61.02-.34"/>
    <path clip-path="url(#404-03)" d="M456.51,6.63c.94,58.5,1.87,116.99,2.81,175.49"/>
  </g>
</svg>