<svg width="16" height="16" viewBox="0 0 16 16" fill="none" xmlns="http://www.w3.org/2000/svg">
<path d="M2.18 11.6399C2.75817 11.6399 3.31266 11.8696 3.72149 12.2784C4.13032 12.6873 4.36 13.2418 4.36 13.8199C4.36 14.9999 3.38 15.9999 2.18 15.9999C1 15.9999 0 14.9999 0 13.8199C0 13.2418 0.229678 12.6873 0.638507 12.2784C1.04734 11.8696 1.60183 11.6399 2.18 11.6399ZM0 0.439941C4.12677 0.439941 8.08452 2.07929 11.0026 4.99736C13.9206 7.91543 15.56 11.8732 15.56 15.9999H12.73C12.73 12.6237 11.3888 9.38581 9.00147 6.99847C6.61413 4.61113 3.37621 3.26994 0 3.26994V0.439941ZM0 6.09994C2.62564 6.09994 5.14375 7.14297 7.00036 8.99958C8.85697 10.8562 9.9 13.3743 9.9 15.9999H7.07C7.07 14.1249 6.32513 12.3266 4.99924 11.0007C3.67336 9.67481 1.87508 8.92994 0 8.92994V6.09994Z" fill="black"/>
</svg>
