<svg width="32" height="16" viewBox="0 0 32 16" fill="none" xmlns="http://www.w3.org/2000/svg">
<path id="path-1" fill-rule="evenodd" clip-rule="evenodd" d="M20.06 6.93997C20.3409 7.22122 20.4987 7.60247 20.4987 7.99997C20.4987 8.39747 20.3409 8.77872 20.06 9.05997L14.404 14.718C14.1226 14.9992 13.741 15.1572 13.3432 15.1571C12.9453 15.157 12.5638 14.9989 12.2825 14.7175C12.0012 14.4361 11.8433 14.0545 11.8434 13.6566C11.8435 13.2588 12.0016 12.8772 12.283 12.596L16.879 7.99997L12.283 3.40397C12.0096 3.1212 11.8583 2.74237 11.8615 2.34907C11.8647 1.95577 12.0223 1.57947 12.3003 1.30123C12.5783 1.02298 12.9544 0.865054 13.3477 0.861452C13.741 0.85785 14.12 1.00887 14.403 1.28197L20.061 6.93897L20.06 6.93997Z" fill="black"/>
<path id="path-2" fill-rule="evenodd" clip-rule="evenodd" d="M20.06 6.93997C20.3409 7.22122 20.4987 7.60247 20.4987 7.99997C20.4987 8.39747 20.3409 8.77872 20.06 9.05997L14.404 14.718C14.1226 14.9992 13.741 15.1572 13.3432 15.1571C12.9453 15.157 12.5638 14.9989 12.2825 14.7175C12.0012 14.4361 11.8433 14.0545 11.8434 13.6566C11.8435 13.2588 12.0016 12.8772 12.283 12.596L16.879 7.99997L12.283 3.40397C12.0096 3.1212 11.8583 2.74237 11.8615 2.34907C11.8647 1.95577 12.0223 1.57947 12.3003 1.30123C12.5783 1.02298 12.9544 0.865054 13.3477 0.861452C13.741 0.85785 14.12 1.00887 14.403 1.28197L20.061 6.93897L20.06 6.93997Z" fill="black"/>
<path id="path-3" fill-rule="evenodd" clip-rule="evenodd" d="M20.06 6.93997C20.3409 7.22122 20.4987 7.60247 20.4987 7.99997C20.4987 8.39747 20.3409 8.77872 20.06 9.05997L14.404 14.718C14.1226 14.9992 13.741 15.1572 13.3432 15.1571C12.9453 15.157 12.5638 14.9989 12.2825 14.7175C12.0012 14.4361 11.8433 14.0545 11.8434 13.6566C11.8435 13.2588 12.0016 12.8772 12.283 12.596L16.879 7.99997L12.283 3.40397C12.0096 3.1212 11.8583 2.74237 11.8615 2.34907C11.8647 1.95577 12.0223 1.57947 12.3003 1.30123C12.5783 1.02298 12.9544 0.865054 13.3477 0.861452C13.741 0.85785 14.12 1.00887 14.403 1.28197L20.061 6.93897L20.06 6.93997Z" fill="black"/>
</svg>
