<svg width="32" height="16" viewBox="0 0 32 16" fill="none" xmlns="http://www.w3.org/2000/svg">
<path id="path-1" fill-rule="evenodd" clip-rule="evenodd" d="M11.94 9.06002C11.6591 8.77877 11.5013 8.39752 11.5013 8.00002C11.5013 7.60252 11.6591 7.22127 11.94 6.94002L17.596 1.28202C17.8774 1.00076 18.259 0.842802 18.6569 0.842896C18.8539 0.842942 19.0489 0.88179 19.2309 0.957221C19.4129 1.03265 19.5783 1.14319 19.7175 1.28252C19.8568 1.42185 19.9672 1.58725 20.0426 1.76928C20.1179 1.9513 20.1567 2.14638 20.1567 2.34338C20.1566 2.54038 20.1178 2.73544 20.0423 2.91742C19.9669 3.09941 19.8564 3.26476 19.717 3.40402L15.121 8.00002L19.717 12.596C19.8604 12.7343 19.9747 12.8998 20.0534 13.0828C20.1321 13.2657 20.1736 13.4625 20.1754 13.6617C20.1772 13.8609 20.1394 14.0584 20.064 14.2428C19.9887 14.4272 19.8774 14.5947 19.7366 14.7356C19.5958 14.8765 19.4284 14.988 19.2441 15.0635C19.0598 15.139 18.8623 15.177 18.6631 15.1754C18.464 15.1738 18.2671 15.1325 18.0841 15.0539C17.901 14.9754 17.7355 14.8612 17.597 14.718L11.938 9.06002H11.94Z" fill="black"/>
<path id="path-2" fill-rule="evenodd" clip-rule="evenodd" d="M11.94 9.06002C11.6591 8.77877 11.5013 8.39752 11.5013 8.00002C11.5013 7.60252 11.6591 7.22127 11.94 6.94002L17.596 1.28202C17.8774 1.00076 18.259 0.842802 18.6569 0.842896C18.8539 0.842942 19.0489 0.88179 19.2309 0.957221C19.4129 1.03265 19.5783 1.14319 19.7175 1.28252C19.8568 1.42185 19.9672 1.58725 20.0426 1.76928C20.1179 1.9513 20.1567 2.14638 20.1567 2.34338C20.1566 2.54038 20.1178 2.73544 20.0423 2.91742C19.9669 3.09941 19.8564 3.26476 19.717 3.40402L15.121 8.00002L19.717 12.596C19.8604 12.7343 19.9747 12.8998 20.0534 13.0828C20.1321 13.2657 20.1736 13.4625 20.1754 13.6617C20.1772 13.8609 20.1394 14.0584 20.064 14.2428C19.9887 14.4272 19.8774 14.5947 19.7366 14.7356C19.5958 14.8765 19.4284 14.988 19.2441 15.0635C19.0598 15.139 18.8623 15.177 18.6631 15.1754C18.464 15.1738 18.2671 15.1325 18.0841 15.0539C17.901 14.9754 17.7355 14.8612 17.597 14.718L11.938 9.06002H11.94Z" fill="black"/>
<path id="path-3" fill-rule="evenodd" clip-rule="evenodd" d="M11.94 9.06002C11.6591 8.77877 11.5013 8.39752 11.5013 8.00002C11.5013 7.60252 11.6591 7.22127 11.94 6.94002L17.596 1.28202C17.8774 1.00076 18.259 0.842802 18.6569 0.842896C18.8539 0.842942 19.0489 0.88179 19.2309 0.957221C19.4129 1.03265 19.5783 1.14319 19.7175 1.28252C19.8568 1.42185 19.9672 1.58725 20.0426 1.76928C20.1179 1.9513 20.1567 2.14638 20.1567 2.34338C20.1566 2.54038 20.1178 2.73544 20.0423 2.91742C19.9669 3.09941 19.8564 3.26476 19.717 3.40402L15.121 8.00002L19.717 12.596C19.8604 12.7343 19.9747 12.8998 20.0534 13.0828C20.1321 13.2657 20.1736 13.4625 20.1754 13.6617C20.1772 13.8609 20.1394 14.0584 20.064 14.2428C19.9887 14.4272 19.8774 14.5947 19.7366 14.7356C19.5958 14.8765 19.4284 14.988 19.2441 15.0635C19.0598 15.139 18.8623 15.177 18.6631 15.1754C18.464 15.1738 18.2671 15.1325 18.0841 15.0539C17.901 14.9754 17.7355 14.8612 17.597 14.718L11.938 9.06002H11.94Z" fill="black"/>
</svg>
